<svg width="63" height="63" viewBox="0 0 63 63" fill="none" xmlns="http://www.w3.org/2000/svg">
<path d="M5.87309 6.00718C4.8416 5.66333 3.72666 6.2208 3.38281 7.25232C3.03898 8.28384 3.59646 9.39879 4.62795 9.74261L5.32334 9.97442C7.09891 10.5663 8.27281 10.9607 9.13762 11.363C9.95652 11.744 10.3106 12.0506 10.5374 12.3653C10.7643 12.68 10.9432 13.1129 11.0456 14.0102C11.1538 14.9579 11.1568 16.1963 11.1568 18.0679V25.0815C11.1567 28.6713 11.1567 31.5648 11.4627 33.8407C11.7803 36.2035 12.4599 38.193 14.0399 39.773C15.62 41.3529 17.6094 42.0326 19.9722 42.3502C22.248 42.6563 25.1415 42.6563 28.7314 42.6563H47.2505C48.3378 42.6563 49.2193 41.7748 49.2193 40.6875C49.2193 39.6 48.3378 38.7188 47.2505 38.7188H28.8755C25.1076 38.7188 22.4796 38.7146 20.4968 38.4479C18.5707 38.189 17.5507 37.7152 16.8242 36.9889C16.2068 36.3715 15.772 35.542 15.4964 34.125H42.0583C44.577 34.125 45.8362 34.125 46.8224 33.4745C47.8086 32.8243 48.3045 31.667 49.2967 29.352L50.4215 26.727C52.5465 21.7689 53.6091 19.2898 52.442 17.5198C51.2749 15.7499 48.5777 15.7499 43.1833 15.7499H15.0813C15.0658 14.9422 15.0319 14.2135 14.9577 13.5636C14.8124 12.2909 14.4958 11.1232 13.7317 10.063C12.9675 9.00283 11.9598 8.33322 10.7985 7.79292C9.70583 7.28464 8.31636 6.82154 6.67212 6.27351L5.87309 6.00718Z" fill="white"/>
<path d="M19.6875 47.25C21.8621 47.25 23.625 49.0129 23.625 51.1875C23.625 53.3621 21.8621 55.125 19.6875 55.125C17.5129 55.125 15.75 53.3621 15.75 51.1875C15.75 49.0129 17.5129 47.25 19.6875 47.25Z" fill="white"/>
<path d="M43.3125 47.2503C45.4871 47.2503 47.25 49.0129 47.25 51.1878C47.25 53.3623 45.4871 55.1253 43.3125 55.1253C41.1379 55.1253 39.375 53.3623 39.375 51.1878C39.375 49.0129 41.1379 47.2503 43.3125 47.2503Z" fill="white"/>
</svg>
